<svg xmlns="http://www.w3.org/2000/svg" viewBox="0 0 640 400" role="img" aria-label="Admin paneli görseli">
	<defs>
		<linearGradient id="admin-bg" x1="0" x2="1">
			<stop offset="0" stop-color="#fff7ed"/>
			<stop offset="1" stop-color="#ffedd5"/>
		</linearGradient>
	</defs>
	<rect width="640" height="400" fill="url(#admin-bg)"/>
	<g>
		<rect x="48" y="36" width="544" height="328" rx="16" fill="#ffffff" stroke="#e5e7eb"/>
		<!-- Sidebar -->
		<rect x="48" y="36" width="136" height="328" rx="16" fill="#f9fafb" stroke="#e5e7eb"/>
		<rect x="68" y="60" width="96" height="12" rx="6" fill="#111827" opacity="0.85"/>
		<rect x="60" y="88" width="120" height="10" rx="5" fill="#e5e7eb"/>
		<rect x="60" y="108" width="120" height="10" rx="5" fill="#e5e7eb"/>
		<rect x="60" y="128" width="120" height="10" rx="5" fill="#e5e7eb"/>
		<rect x="60" y="148" width="120" height="10" rx="5" fill="#e5e7eb"/>

		<!-- Top toolbar -->
		<rect x="200" y="56" width="160" height="12" rx="6" fill="#111827" opacity="0.85"/>
		<rect x="200" y="76" width="220" height="10" rx="5" fill="#6b7280" opacity="0.6"/>
		<rect x="430" y="70" width="140" height="24" rx="12" fill="#6366f1"/>

		<!-- Table rows -->
		<g>
			<rect x="200" y="112" width="372" height="44" rx="8" fill="#ffffff" stroke="#e5e7eb"/>
			<rect x="214" y="128" width="160" height="10" rx="5" fill="#111827" opacity="0.85"/>
			<rect x="510" y="122" width="48" height="20" rx="10" fill="#dcfce7"/>
		</g>
		<g>
			<rect x="200" y="164" width="372" height="44" rx="8" fill="#ffffff" stroke="#e5e7eb"/>
			<rect x="214" y="180" width="160" height="10" rx="5" fill="#111827" opacity="0.85"/>
			<rect x="510" y="174" width="48" height="20" rx="10" fill="#fde68a"/>
		</g>
		<g>
			<rect x="200" y="216" width="372" height="44" rx="8" fill="#ffffff" stroke="#e5e7eb"/>
			<rect x="214" y="232" width="160" height="10" rx="5" fill="#111827" opacity="0.85"/>
			<rect x="510" y="226" width="48" height="20" rx="10" fill="#fecaca"/>
		</g>
	</g>
</svg>
