<svg xmlns="http://www.w3.org/2000/svg" viewBox="0 0 640 400" role="img" aria-label="Mutfak/Bar ekranı görseli">
	<defs>
		<linearGradient id="kitchen-bg" x1="0" x2="1">
			<stop offset="0" stop-color="#ecfccb"/>
			<stop offset="1" stop-color="#d9f99d"/>
		</linearGradient>
	</defs>
	<rect width="640" height="400" fill="url(#kitchen-bg)"/>
	<g>
		<rect x="48" y="36" width="544" height="328" rx="16" fill="#ffffff" stroke="#e5e7eb"/>
		<rect x="64" y="56" width="220" height="14" rx="7" fill="#111827" opacity="0.85"/>
		<rect x="64" y="78" width="300" height="10" rx="5" fill="#6b7280" opacity="0.6"/>

		<!-- Tickets columns -->
		<!-- Column 1 -->
		<g>
			<rect x="64" y="108" width="168" height="220" rx="12" fill="#f9fafb" stroke="#e5e7eb"/>
			<rect x="76" y="120" width="120" height="10" rx="5" fill="#111827" opacity="0.85"/>
			<rect x="76" y="140" width="140" height="12" rx="6" fill="#e5e7eb"/>
			<rect x="76" y="160" width="140" height="12" rx="6" fill="#e5e7eb"/>
			<rect x="76" y="186" width="136" height="28" rx="6" fill="#fde68a"/>
			<rect x="76" y="224" width="136" height="28" rx="6" fill="#dcfce7"/>
			<rect x="76" y="262" width="136" height="28" rx="6" fill="#e0e7ff"/>
		</g>

		<!-- Column 2 -->
		<g>
			<rect x="248" y="108" width="168" height="220" rx="12" fill="#f9fafb" stroke="#e5e7eb"/>
			<rect x="260" y="120" width="120" height="10" rx="5" fill="#111827" opacity="0.85"/>
			<rect x="260" y="140" width="140" height="12" rx="6" fill="#e5e7eb"/>
			<rect x="260" y="160" width="140" height="12" rx="6" fill="#e5e7eb"/>
			<rect x="260" y="186" width="136" height="28" rx="6" fill="#fee2e2"/>
			<rect x="260" y="224" width="136" height="28" rx="6" fill="#dcfce7"/>
			<rect x="260" y="262" width="136" height="28" rx="6" fill="#fde68a"/>
		</g>

		<!-- Column 3 -->
		<g>
			<rect x="432" y="108" width="168" height="220" rx="12" fill="#f9fafb" stroke="#e5e7eb"/>
			<rect x="444" y="120" width="120" height="10" rx="5" fill="#111827" opacity="0.85"/>
			<rect x="444" y="140" width="140" height="12" rx="6" fill="#e5e7eb"/>
			<rect x="444" y="160" width="140" height="12" rx="6" fill="#e5e7eb"/>
			<rect x="444" y="186" width="136" height="28" rx="6" fill="#e0e7ff"/>
			<rect x="444" y="224" width="136" height="28" rx="6" fill="#dcfce7"/>
			<rect x="444" y="262" width="136" height="28" rx="6" fill="#fee2e2"/>
		</g>
	</g>
</svg>
