<svg xmlns="http://www.w3.org/2000/svg" viewBox="0 0 640 400" role="img" aria-label="Menü ekranı görseli">
	<defs>
		<linearGradient id="menu-bg" x1="0" x2="1">
			<stop offset="0" stop-color="#f8fafc"/>
			<stop offset="1" stop-color="#eef2ff"/>
		</linearGradient>
	</defs>
	<!-- Background -->
	<rect width="640" height="400" fill="url(#menu-bg)"/>

	<!-- App container -->
	<g>
		<rect x="48" y="36" width="544" height="328" rx="16" fill="#ffffff" stroke="#e5e7eb"/>

		<!-- Header -->
		<rect x="64" y="56" width="200" height="14" rx="7" fill="#111827" opacity="0.8"/>
		<rect x="64" y="78" width="144" height="10" rx="5" fill="#6b7280" opacity="0.6"/>

		<!-- Category pills -->
		<g>
			<rect x="64" y="106" width="72" height="26" rx="13" fill="#eef2ff" stroke="#c7d2fe"/>
			<rect x="144" y="106" width="88" height="26" rx="13" fill="#f3f4f6"/>
			<rect x="240" y="106" width="88" height="26" rx="13" fill="#f3f4f6"/>
			<rect x="336" y="106" width="72" height="26" rx="13" fill="#f3f4f6"/>
		</g>

		<!-- Items grid (2 cols) -->
		<!-- Card 1 -->
		<g>
			<rect x="64" y="144" width="232" height="152" rx="12" fill="#ffffff" stroke="#e5e7eb"/>
			<rect x="64" y="144" width="232" height="84" rx="12" fill="#e5e7eb"/>
			<rect x="80" y="236" width="160" height="12" rx="6" fill="#111827" opacity="0.8"/>
			<rect x="80" y="254" width="120" height="10" rx="5" fill="#6b7280" opacity="0.6"/>
			<rect x="208" y="254" width="72" height="24" rx="12" fill="#6366f1"/>
		</g>

		<!-- Card 2 -->
		<g>
			<rect x="320" y="144" width="232" height="152" rx="12" fill="#ffffff" stroke="#e5e7eb"/>
			<rect x="320" y="144" width="232" height="84" rx="12" fill="#e5e7eb"/>
			<rect x="336" y="236" width="160" height="12" rx="6" fill="#111827" opacity="0.8"/>
			<rect x="336" y="254" width="120" height="10" rx="5" fill="#6b7280" opacity="0.6"/>
			<rect x="464" y="254" width="72" height="24" rx="12" fill="#6366f1"/>
		</g>

		<!-- Sticky cart bar -->
		<rect x="160" y="316" width="320" height="36" rx="18" fill="#6366f1"/>
		<!-- cart icon circle -->
		<circle cx="184" cy="334" r="6" fill="#ffffff"/>
		<rect x="196" y="329" width="90" height="10" rx="5" fill="#ffffff" opacity="0.9"/>
		<rect x="300" y="329" width="60" height="10" rx="5" fill="#ffffff" opacity="0.9"/>
	</g>
</svg>
