<svg xmlns="http://www.w3.org/2000/svg" viewBox="0 0 640 400" role="img" aria-label="Siparişler ekranı görseli">
	<defs>
		<linearGradient id="orders-bg" x1="0" x2="1">
			<stop offset="0" stop-color="#f0f9ff"/>
			<stop offset="1" stop-color="#e0f2fe"/>
		</linearGradient>
	</defs>
	<rect width="640" height="400" fill="url(#orders-bg)"/>
	<g>
		<rect x="48" y="36" width="544" height="328" rx="16" fill="#ffffff" stroke="#e5e7eb"/>
		<rect x="64" y="56" width="220" height="14" rx="7" fill="#111827" opacity="0.8"/>
		<rect x="64" y="78" width="160" height="10" rx="5" fill="#6b7280" opacity="0.6"/>

		<!-- Order card 1 -->
		<g>
			<rect x="64" y="108" width="512" height="60" rx="10" fill="#ffffff" stroke="#e5e7eb"/>
			<rect x="80" y="124" width="120" height="12" rx="6" fill="#111827" opacity="0.85"/>
			<rect x="80" y="142" width="90" height="10" rx="5" fill="#6b7280" opacity="0.6"/>
			<rect x="464" y="122" width="96" height="20" rx="10" fill="#fef3c7"/>
			<rect x="472" y="127" width="80" height="10" rx="5" fill="#92400e" opacity="0.8"/>
		</g>

		<!-- Order card 2 -->
		<g>
			<rect x="64" y="176" width="512" height="60" rx="10" fill="#ffffff" stroke="#e5e7eb"/>
			<rect x="80" y="192" width="120" height="12" rx="6" fill="#111827" opacity="0.85"/>
			<rect x="80" y="210" width="90" height="10" rx="5" fill="#6b7280" opacity="0.6"/>
			<rect x="450" y="190" width="110" height="24" rx="12" fill="#6366f1"/>
		</g>

		<!-- Order card 3 -->
		<g>
			<rect x="64" y="244" width="512" height="60" rx="10" fill="#ffffff" stroke="#e5e7eb"/>
			<rect x="80" y="260" width="120" height="12" rx="6" fill="#111827" opacity="0.85"/>
			<rect x="80" y="278" width="90" height="10" rx="5" fill="#6b7280" opacity="0.6"/>
			<rect x="464" y="252" width="96" height="20" rx="10" fill="#dcfce7"/>
			<rect x="472" y="257" width="80" height="10" rx="5" fill="#166534" opacity="0.9"/>
		</g>
	</g>
</svg>
